<svg width="40" height="40" viewBox="0 0 40 40" fill="none" xmlns="http://www.w3.org/2000/svg">
<rect x="0.5" y="0.5" width="39" height="39" rx="4.5" stroke="#9155FD"/>
<path d="M28.05 13H11.95C10.0446 13 8.5 14.6789 8.5 16.75V20.1511L16.363 23H23.637L31.5 20.1511V16.75C31.5 14.6789 29.9554 13 28.05 13Z" fill="#C09EFF"/>
<path d="M17.7 13.3333V12.2222H22.3V13.3333H24.6V12.2222C24.5986 10.9955 23.5697 10.0014 22.3 10H17.7C16.4303 10.0014 15.4014 10.9955 15.4 12.2222V13.3333H17.7ZM16.363 22.2222L8.5 19.6898V26.6667C8.50208 28.5068 10.0455 29.998 11.95 30H28.05C29.9545 29.998 31.4979 28.5068 31.5 26.6667V19.6898L23.637 22.2222H16.363Z" fill="#9155FD"/>
</svg>
